<svg width="30" height="28" viewBox="0 0 30 28" fill="none" xmlns="http://www.w3.org/2000/svg">
<path d="M0.833984 18.25V9.75C0.833984 7.49566 1.72952 5.33365 3.32358 3.73959C4.91764 2.14553 7.07964 1.25 9.33398 1.25H20.6673C22.9217 1.25 25.0837 2.14553 26.6777 3.73959C28.2718 5.33365 29.1673 7.49566 29.1673 9.75V18.25C29.1673 20.5043 28.2718 22.6663 26.6777 24.2604C25.0837 25.8545 22.9217 26.75 20.6673 26.75H9.33398C7.07964 26.75 4.91764 25.8545 3.32358 24.2604C1.72952 22.6663 0.833984 20.5043 0.833984 18.25Z" stroke="#286CFF" stroke-width="1.5"/>
<path d="M15 18.25V9.75H18.5417C19.1053 9.75 19.6458 9.97388 20.0443 10.3724C20.4428 10.7709 20.6667 11.3114 20.6667 11.875C20.6667 12.4386 20.4428 12.9791 20.0443 13.3776C19.6458 13.7761 19.1053 14 18.5417 14H15M10.75 9.75V18.25" stroke="#286CFF" stroke-width="1.5" stroke-linecap="round" stroke-linejoin="round"/>
</svg>
