<svg width="29" height="15" viewBox="0 0 29 15" fill="none" xmlns="http://www.w3.org/2000/svg">
<path d="M7.20846 10.192C6.45985 10.192 5.82402 9.93052 5.30096 9.40746C4.77791 8.8844 4.51638 8.24857 4.51638 7.49996C4.51638 6.75135 4.77791 6.11552 5.30096 5.59246C5.82402 5.06941 6.45985 4.80788 7.20846 4.80788C7.95707 4.80788 8.59291 5.06941 9.11596 5.59246C9.63902 6.11552 9.90055 6.75135 9.90055 7.49996C9.90055 8.24857 9.63902 8.8844 9.11596 9.40746C8.59291 9.93052 7.95707 10.192 7.20846 10.192ZM7.20846 14.3993C8.83694 14.3993 10.2598 13.939 11.477 13.0183C12.6942 12.0995 13.4759 10.9893 13.822 9.68746H17.9783L19.5372 10.8833C19.6451 10.9533 19.7565 11.0097 19.8712 11.0525C19.9859 11.0952 20.1123 11.1161 20.2503 11.1152C20.3884 11.1142 20.5143 11.0933 20.628 11.0525C20.7418 11.0097 20.8531 10.9436 20.962 10.8541L22.941 9.32288L24.7085 10.6835C24.8349 10.7671 24.971 10.8347 25.1168 10.8862C25.2617 10.9377 25.4031 10.9514 25.5412 10.927C25.6792 10.9027 25.8134 10.8619 25.9437 10.8045C26.0739 10.7472 26.1906 10.6645 26.2937 10.5566L28.3966 8.31517C28.5181 8.18878 28.6046 8.05899 28.6562 7.92579C28.7067 7.79357 28.732 7.64871 28.732 7.49121C28.732 7.33371 28.7053 7.19031 28.6518 7.061C28.5983 6.9317 28.5103 6.80628 28.3878 6.68475L27.3699 5.66538C27.2435 5.53899 27.1074 5.44857 26.9616 5.39413C26.8158 5.33968 26.6651 5.31246 26.5095 5.31246H13.822C13.4817 4.03399 12.7069 2.92906 11.4974 1.99767C10.2889 1.06628 8.8593 0.600586 7.20846 0.600586C5.26402 0.600586 3.62777 1.26461 2.29971 2.59267C0.973603 3.91975 0.310547 5.55552 0.310547 7.49996C0.310547 9.4444 0.974575 11.0807 2.30263 12.4087C3.63069 13.7368 5.26596 14.3998 7.20846 14.3979" fill="#286CFF"/>
</svg>
