<svg width="25" height="25" viewBox="0 0 25 25" fill="none" xmlns="http://www.w3.org/2000/svg">
<path d="M21.7812 4.75798C21.8418 4.61639 21.8738 4.46428 21.8756 4.31031C21.8773 4.15634 21.8487 4.00354 21.7914 3.86062C21.7341 3.71771 21.6492 3.58748 21.5416 3.47737C21.4339 3.36727 21.3056 3.27944 21.1641 3.21891C21.0225 3.15838 20.8704 3.12633 20.7164 3.12459C20.5624 3.12284 20.4096 3.15145 20.2667 3.20876C19.9781 3.3245 19.7472 3.55016 19.625 3.8361L12.5938 20.2423C12.5332 20.3839 12.5012 20.5361 12.4994 20.69C12.4977 20.844 12.5263 20.9968 12.5836 21.1397C12.6409 21.2826 12.7258 21.4128 12.8334 21.523C12.9411 21.6331 13.0694 21.7209 13.2109 21.7814C13.3525 21.8419 13.5046 21.874 13.6586 21.8757C13.8126 21.8775 13.9654 21.8489 14.1083 21.7916C14.2512 21.7343 14.3814 21.6494 14.4915 21.5417C14.6016 21.4341 14.6895 21.3058 14.75 21.1642L21.7812 4.75798ZM7.8125 17.9689C7.8125 18.2767 7.75188 18.5815 7.63409 18.8658C7.51631 19.1502 7.34367 19.4086 7.12603 19.6262C6.90839 19.8438 6.65002 20.0165 6.36566 20.1343C6.08131 20.252 5.77654 20.3127 5.46875 20.3127C5.16096 20.3127 4.85619 20.252 4.57184 20.1343C4.28748 20.0165 4.02911 19.8438 3.81147 19.6262C3.59383 19.4086 3.42119 19.1502 3.30341 18.8658C3.18562 18.5815 3.125 18.2767 3.125 17.9689C3.125 17.3473 3.37193 16.7512 3.81147 16.3116C4.25101 15.8721 4.84715 15.6252 5.46875 15.6252C6.09035 15.6252 6.68649 15.8721 7.12603 16.3116C7.56557 16.7512 7.8125 17.3473 7.8125 17.9689Z" fill="#286CFF"/>
</svg>
