<svg width="15" height="25" viewBox="0 0 15 25" fill="none" xmlns="http://www.w3.org/2000/svg">
<path d="M6.29204 23.6747C6.29197 23.9043 6.20475 24.1253 6.04799 24.2931C5.89124 24.4609 5.67664 24.5629 5.44756 24.5786C5.21848 24.5942 4.99201 24.5223 4.81389 24.3774C4.63577 24.2325 4.5193 24.0254 4.488 23.798L4.47954 23.6747V18.5417H3.57812C2.88942 18.5418 2.22633 18.2805 1.72281 17.8107C1.21929 17.3408 0.912861 16.6973 0.865417 16.0103L0.859375 15.8242V9.17834C0.859092 8.61304 1.03502 8.06171 1.36269 7.60107C1.69036 7.14043 2.15347 6.79338 2.68758 6.60821V1.31934C2.68759 1.10034 2.7669 0.888756 2.91084 0.723711C3.05479 0.558667 3.25362 0.451328 3.47058 0.421544L3.59262 0.413086H11.448C11.667 0.413095 11.8786 0.492404 12.0436 0.636346C12.2087 0.780288 12.316 0.979125 12.3458 1.19609L12.3543 1.31934V6.61909C12.8473 6.79695 13.2784 7.11352 13.5957 7.53071C13.9129 7.94789 14.1029 8.44789 14.1426 8.9705L14.151 9.17592V15.8218C14.1514 16.5109 13.8901 17.1744 13.42 17.6782C12.9498 18.182 12.3059 18.4885 11.6184 18.5357L11.4323 18.5417H10.5212L10.5224 23.6711C10.5223 23.9007 10.4351 24.1217 10.2784 24.2895C10.1216 24.4573 9.90701 24.5593 9.67794 24.575C9.44886 24.5906 9.22238 24.5187 9.04426 24.3738C8.86615 24.2289 8.74967 24.0218 8.71838 23.7943L8.70871 23.6711V18.5417H6.29204V23.6747ZM11.4323 8.27088H3.57812C3.35913 8.27089 3.14755 8.3502 2.9825 8.49414C2.81746 8.63808 2.71012 8.83692 2.68033 9.05388L2.67187 9.17713V15.823C2.67187 16.2821 3.01263 16.6603 3.45488 16.7208L3.57812 16.7292L9.61496 16.7256L9.66692 16.728H11.4323C11.6511 16.728 11.8625 16.6489 12.0276 16.5052C12.1926 16.3615 12.3 16.163 12.3301 15.9462L12.3385 15.823V9.17713C12.3385 8.95813 12.2592 8.74655 12.1153 8.5815C11.9713 8.41646 11.7725 8.30912 11.5555 8.27934L11.4323 8.27088ZM10.5418 2.22559H4.49887V6.45717H10.5418V2.22559Z" fill="#286CFF"/>
</svg>
