<svg width="28" height="28" viewBox="0 0 28 28" fill="none" xmlns="http://www.w3.org/2000/svg">
<path d="M4.23693 2.47543C3.19451 1.95451 2.04068 2.9491 2.40176 4.05685L4.74326 11.2348C4.80949 11.4375 4.93004 11.6183 5.09182 11.7573C5.2536 11.8964 5.45041 11.9884 5.66084 12.0234L14.9125 13.5652C15.3996 13.6468 15.3996 14.3468 14.9125 14.4285L5.66143 15.9703C5.45099 16.0053 5.25419 16.0973 5.09241 16.2364C4.93063 16.3754 4.81007 16.5561 4.74384 16.7589L2.40176 23.9409C2.04009 25.0493 3.19451 26.0438 4.23693 25.5229L24.9418 15.1734C25.9095 14.6893 25.9095 13.3085 24.9418 12.8249L4.23693 2.47543Z" fill="white"/>
</svg>
