<svg width="21" height="21" viewBox="0 0 21 21" fill="none" xmlns="http://www.w3.org/2000/svg">
<path d="M5.62295 17.9128C5.03691 17.9128 4.22021 18.5239 4.22021 19.2062C4.22021 19.5434 4.43021 19.705 4.73455 19.705C5.29794 19.705 6.18388 19.1144 6.18388 18.3958C6.18355 18.042 5.93598 17.9128 5.62295 17.9128ZM7.57069 4.74429C7.57069 4.1435 7.14512 3.68445 6.51085 3.68445C5.91612 3.68445 5.43575 4.1435 5.43575 4.74429C5.43575 5.30752 5.89283 5.81956 6.49527 5.81956C7.06456 5.81956 7.57053 5.37118 7.57053 4.74446L7.57069 4.74429ZM10.4849 2.23529C10.4849 1.77755 10.1855 1.19119 9.54978 1.19119C8.97163 1.19119 8.6773 1.69946 8.6773 2.15752C8.6773 2.60016 8.99033 3.24821 9.61245 3.24821C10.1906 3.24821 10.4849 2.67825 10.4849 2.23529ZM7.93787 19.2062C7.40795 19.2062 6.67902 19.8992 6.67902 20.4219C6.67902 20.6874 6.78894 20.8272 7.07802 20.8272C7.45585 20.8272 8.00169 20.5068 8.23695 20.0323C8.28355 19.9391 8.36738 19.7818 8.36738 19.7517V19.4869C8.20332 19.266 8.09291 19.2064 7.93754 19.2064L7.93787 19.2062ZM4.6722 15.9491C4.6722 15.4914 4.33325 15.3102 3.95525 15.3102C3.40269 15.3102 2.44374 15.8412 2.44374 16.6035C2.44374 17.034 2.73692 17.227 3.14495 17.227C3.66748 17.227 4.67237 16.7532 4.67237 15.9489L4.6722 15.9491ZM4.00201 9.54411C4.55654 9.54411 5.32665 9.16151 5.32665 8.37532C5.32665 7.78175 4.83725 7.409 4.29798 7.409C3.71227 7.409 2.95791 7.81587 2.95791 8.57778C2.95791 9.16381 3.43123 9.54411 4.00201 9.54411ZM4.29814 12.396C4.29814 11.8505 3.85304 11.6013 3.37873 11.6013C3.34888 11.6013 3.32623 11.5921 3.20745 11.6013C2.52216 11.6587 1.88281 12.2487 1.88281 12.8482C1.88281 13.4083 2.39206 13.6427 2.83339 13.6427C3.40433 13.6427 4.29847 13.2047 4.29847 12.3958L4.29814 12.396ZM17.4197 1.54967C17.0025 1.54967 16.8586 2.19739 16.8586 2.40673C16.8586 2.61443 16.9305 3.0766 17.295 3.0766C17.7227 3.0766 17.8561 2.42888 17.8561 2.21954C17.8561 2.04333 17.7616 1.54934 17.4197 1.54934V1.54967ZM15.3781 0.380723C14.8933 0.380723 14.7394 0.987754 14.7394 1.26912C14.7394 1.45451 14.8536 2.11503 15.3161 2.11076C15.7787 2.10584 15.9549 1.50488 15.9549 1.20678C15.9549 0.974957 15.8434 0.380887 15.3783 0.380887L15.3781 0.380723ZM18.7755 3.26379C18.39 3.26379 18.2456 3.89707 18.2456 4.08968C18.2456 4.25079 18.3073 4.63519 18.6041 4.63519C18.9789 4.63519 19.1184 4.0175 19.1184 3.82472C19.1184 3.69675 19.0618 3.26379 18.7755 3.26379ZM14.7238 17.4919C14.2841 17.4919 13.9757 18.1636 13.9757 18.4271C13.9757 18.5643 14.0108 18.7077 14.2096 18.7077C14.6447 18.7077 14.9578 18.0465 14.9578 17.7725C14.9574 17.6442 14.9105 17.4919 14.7238 17.4919ZM10.3603 19.4087C9.86314 19.4087 9.28498 20.0728 9.28498 20.5309C9.28498 20.5981 9.2863 20.7299 9.40967 20.8114C9.53895 20.8959 9.76995 20.9038 10.0487 20.7179C10.4228 20.4682 10.6721 20.0267 10.6721 19.736C10.6721 19.5764 10.5698 19.4089 10.3603 19.4087ZM12.6666 0.131348C12.1367 0.131348 11.9343 0.760363 11.9343 1.09768C11.9343 1.45156 12.1951 2.064 12.7132 2.064C13.2391 2.064 13.44 1.43564 13.4302 1.11326C13.4179 0.700644 13.245 0.131348 12.6666 0.131348ZM12.6666 18.7541C12.1848 18.7541 11.7784 19.4448 11.7784 19.7983C11.7784 19.9763 11.8595 20.0789 12.0432 20.0789C12.4785 20.0789 12.9314 19.4121 12.9314 19.066C12.9314 18.9139 12.9003 18.7542 12.6665 18.7542L12.6666 18.7541Z" fill="white"/>
</svg>
