<svg width="58" height="53" viewBox="0 0 58 53" fill="none" xmlns="http://www.w3.org/2000/svg">
<path d="M17.0529 52.8124C26.0956 52.8124 33.4261 45.4818 33.4261 36.4391C33.4261 27.3965 26.0956 20.0659 17.0529 20.0659C8.01023 20.0659 0.679688 27.3965 0.679688 36.4391C0.679688 45.4818 8.01023 52.8124 17.0529 52.8124Z" fill="#EC0000"/>
<path d="M41.2053 52.8124C50.2479 52.8124 57.5785 45.4818 57.5785 36.4391C57.5785 27.3965 50.2479 20.0659 41.2053 20.0659C32.1626 20.0659 24.832 27.3965 24.832 36.4391C24.832 45.4818 32.1626 52.8124 41.2053 52.8124Z" fill="#06B200"/>
<path d="M29.3478 33.2845C38.3905 33.2845 45.7211 25.954 45.7211 16.9113C45.7211 7.86863 38.3905 0.538086 29.3478 0.538086C20.3052 0.538086 12.9746 7.86863 12.9746 16.9113C12.9746 25.954 20.3052 33.2845 29.3478 33.2845Z" fill="#286CFF"/>
</svg>
