<svg width="25" height="25" viewBox="0 0 25 25" fill="none" xmlns="http://www.w3.org/2000/svg">
<path d="M12.5007 0.833252C14.0477 0.833252 15.5315 1.44783 16.6254 2.5418C17.7194 3.63576 18.334 5.11949 18.334 6.66659C18.334 8.21368 17.7194 9.69741 16.6254 10.7914C15.5315 11.8853 14.0477 12.4999 12.5007 12.4999C10.9536 12.4999 9.46982 11.8853 8.37586 10.7914C7.2819 9.69741 6.66732 8.21368 6.66732 6.66659C6.66732 5.11949 7.2819 3.63576 8.37586 2.5418C9.46982 1.44783 10.9536 0.833252 12.5007 0.833252ZM12.5007 15.4166C18.9465 15.4166 24.1673 18.027 24.1673 21.2499V24.1666H0.833984V21.2499C0.833984 18.027 6.05482 15.4166 12.5007 15.4166Z" fill="#286CFF"/>
</svg>
