<svg width="30" height="30" viewBox="0 0 30 30" fill="none" xmlns="http://www.w3.org/2000/svg">
<path fill-rule="evenodd" clip-rule="evenodd" d="M15 17.25C14.6685 17.25 14.3505 17.1183 14.1161 16.8839C13.8817 16.6495 13.75 16.3315 13.75 16V9.75C13.75 9.41848 13.8817 9.10054 14.1161 8.86612C14.3505 8.6317 14.6685 8.5 15 8.5C15.3315 8.5 15.6495 8.6317 15.8839 8.86612C16.1183 9.10054 16.25 9.41848 16.25 9.75V16C16.25 16.3315 16.1183 16.6495 15.8839 16.8839C15.6495 17.1183 15.3315 17.25 15 17.25Z" fill="white"/>
<path d="M13.6836 19.9471C13.6836 19.598 13.8223 19.2632 14.0691 19.0164C14.316 18.7695 14.6508 18.6309 14.9998 18.6309C15.3489 18.6309 15.6837 18.7695 15.9306 19.0164C16.1774 19.2632 16.3161 19.598 16.3161 19.9471C16.3161 20.2962 16.1774 20.631 15.9306 20.8778C15.6837 21.1247 15.3489 21.2634 14.9998 21.2634C14.6508 21.2634 14.316 21.1247 14.0691 20.8778C13.8223 20.631 13.6836 20.2962 13.6836 19.9471Z" fill="white"/>
<path fill-rule="evenodd" clip-rule="evenodd" d="M19.5093 5.80232L26.8544 19.2023C28.7444 22.6511 26.2631 26.8748 22.3456 26.8748H7.6556C3.7381 26.8748 1.2556 22.6498 3.14685 19.2011L10.4918 5.80107C12.4493 2.23232 17.5519 2.23232 19.5093 5.80107V5.80232ZM17.2544 7.05232C16.2768 5.26607 13.7243 5.26607 12.7468 7.05232L5.4006 20.4498C4.45435 22.1748 5.6956 24.2861 7.65435 24.2861H22.3443C24.3031 24.2861 25.5443 22.1736 24.5981 20.4486L17.2544 7.05232Z" fill="white"/>
</svg>
