<svg width="481" height="53" viewBox="0 0 481 53" fill="none" xmlns="http://www.w3.org/2000/svg">
<path d="M75 13H78.525V37.8H88V41H75V13Z" fill="#303030"/>
<path d="M108 31.5081V13H104.372V31.2291C104.372 32.6238 104.12 33.7942 103.615 34.7404C103.117 35.6811 102.431 36.4031 101.559 36.9062C100.687 37.4039 99.6811 37.6528 98.5425 37.6528C97.3982 37.6528 96.3785 37.4039 95.4835 36.9062C94.5827 36.4031 93.8831 35.6811 93.3846 34.7404C92.8804 33.7942 92.6284 32.6238 92.6284 31.2291V13H89V31.5081C89 33.3457 89.2832 34.8744 89.8497 36.0941C90.4219 37.3137 91.1782 38.2845 92.1185 39.0064C93.0532 39.7284 94.0871 40.2425 95.22 40.5488C96.3473 40.8496 97.4548 41 98.5425 41C99.6301 41 100.723 40.8496 101.822 40.5488C102.927 40.2425 103.947 39.7284 104.881 39.0064C105.822 38.2845 106.578 37.3137 107.15 36.0941C107.717 34.8744 108 33.3457 108 31.5081Z" fill="#303030"/>
<path d="M109 27C109 24.6195 109.336 22.5515 110.009 20.7957C110.682 19.04 111.591 17.5859 112.735 16.4334C113.879 15.2808 115.177 14.4218 116.629 13.8563C118.081 13.2854 119.587 13 121.146 13C122.654 13 123.899 13.1562 124.88 13.4686C125.867 13.7755 126.574 14.1364 127 14.5511V17.8875H126.361C125.901 17.3705 125.253 16.9638 124.418 16.6676C123.582 16.3714 122.548 16.2233 121.314 16.2233C119.643 16.2233 118.154 16.6353 116.848 17.4593C115.541 18.2887 114.518 19.5032 113.778 21.1027C113.037 22.7076 112.667 24.6734 112.667 27C112.667 29.3266 113.037 31.2924 113.778 32.8973C114.518 34.4968 115.536 35.7113 116.831 36.5407C118.121 37.3647 119.601 37.7767 121.272 37.7767C122.511 37.7767 123.554 37.6286 124.401 37.3324C125.248 37.0362 125.901 36.6295 126.361 36.1125H127V39.4489C126.574 39.8367 125.867 40.1922 124.88 40.5153C123.899 40.8384 122.629 41 121.07 41C119.483 41 117.961 40.7146 116.503 40.1437C115.05 39.5782 113.761 38.7192 112.634 37.5666C111.501 36.4141 110.612 34.96 109.967 33.2043C109.322 31.4485 109 29.3805 109 27Z" fill="#303030"/>
<path d="M128 41V40.2833L134.647 13L142.394 13.0417L149 40.2833V41H145.481L143.371 32H133.637L131.519 41H128ZM134.256 28.8833H142.785L139.852 16.2833H137.156L134.256 28.8833Z" fill="#303030"/>
<path d="M165 34.1029C165 35.5226 164.652 36.7488 163.956 37.7813C163.265 38.8139 162.308 39.6071 161.085 40.1611C159.863 40.7204 158.422 41 156.763 41C155.461 41 154.258 40.8494 153.154 40.5483C152.056 40.2525 151.119 39.8975 150.344 39.4834C149.568 39.0747 148.991 38.7278 148.611 38.4428V35.1112H149.146C149.984 35.8103 151.077 36.4422 152.424 37.0069C153.771 37.577 155.124 37.862 156.483 37.862C157.349 37.862 158.156 37.7383 158.903 37.4909C159.65 37.2489 160.248 36.8563 160.695 36.3132C161.148 35.77 161.374 35.0978 161.374 34.2965C161.374 33.2908 161.102 32.4599 160.559 31.8038C160.015 31.1423 159.186 30.4889 158.071 29.8436L153.137 26.8992C152.379 26.4367 151.598 25.9016 150.794 25.2939C149.99 24.6862 149.325 23.9386 148.798 23.0513C148.266 22.1586 148 21.0668 148 19.7761C148 18.308 148.354 17.0684 149.061 16.0573C149.769 15.0517 150.72 14.2907 151.915 13.7744C153.109 13.2581 154.454 13 155.948 13C157.278 13 158.447 13.1291 159.455 13.3872C160.463 13.6453 161.318 13.968 162.019 14.3552C162.727 14.7424 163.285 15.1296 163.692 15.5169V18.8485H163.123C162.444 18.1009 161.479 17.461 160.228 16.9286C158.977 16.4015 157.578 16.138 156.033 16.138C154.754 16.138 153.701 16.4284 152.874 17.0092C152.042 17.59 151.626 18.4236 151.626 19.5099C151.626 20.5156 151.994 21.3788 152.73 22.0994C153.466 22.8254 154.349 23.4976 155.379 24.1161L159.948 26.8266C160.87 27.3697 161.711 27.9747 162.47 28.6416C163.234 29.3138 163.845 30.0883 164.304 30.9649C164.768 31.8468 165 32.8928 165 34.1029Z" fill="#303030"/>
<path d="M192 34.1029C192 35.5226 191.652 36.7488 190.956 37.7813C190.265 38.8139 189.308 39.6071 188.085 40.1611C186.863 40.7204 185.422 41 183.763 41C182.461 41 181.258 40.8494 180.154 40.5483C179.056 40.2525 178.119 39.8975 177.344 39.4834C176.568 39.0747 175.991 38.7278 175.611 38.4428V35.1112H176.138C176.981 35.8103 178.077 36.4422 179.424 37.0069C180.766 37.577 182.116 37.862 183.475 37.862C184.346 37.862 185.156 37.7383 185.903 37.4909C186.65 37.2489 187.248 36.8563 187.695 36.3132C188.142 35.77 188.366 35.0978 188.366 34.2965C188.366 33.2908 188.094 32.4599 187.55 31.8038C187.007 31.1423 186.18 30.4889 185.071 29.8436L180.137 26.8992C179.373 26.4367 178.592 25.9016 177.794 25.2939C176.99 24.6862 176.325 23.9386 175.798 23.0513C175.266 22.1586 175 21.0668 175 19.7761C175 18.308 175.354 17.0684 176.061 16.0573C176.769 15.0517 177.72 14.2907 178.915 13.7744C180.109 13.2581 181.454 13 182.948 13C184.278 13 185.447 13.1291 186.455 13.3872C187.457 13.6453 188.312 13.968 189.019 14.3552C189.727 14.7424 190.285 15.1296 190.692 15.5169V18.8485H190.123C189.444 18.1009 188.479 17.461 187.228 16.9286C185.977 16.4015 184.578 16.138 183.033 16.138C181.754 16.138 180.701 16.4284 179.874 17.0092C179.042 17.59 178.626 18.4236 178.626 19.5099C178.626 20.5156 178.994 21.3788 179.73 22.0994C180.46 22.8254 181.343 23.4976 182.379 24.1161L186.939 26.8266C187.867 27.3697 188.711 27.9747 189.47 28.6416C190.228 29.3138 190.839 30.0883 191.304 30.9649C191.768 31.8468 192 32.8928 192 34.1029Z" fill="#303030"/>
<path d="M209 34.1029C209 35.5226 208.655 36.7488 207.964 37.7813C207.273 38.8139 206.315 39.6071 205.092 40.1611C203.869 40.7204 202.427 41 200.768 41C199.459 41 198.256 40.8494 197.157 40.5483C196.058 40.2525 195.121 39.8975 194.345 39.4834C193.569 39.0747 192.991 38.7278 192.612 38.4428V35.1112H193.138C193.982 35.8103 195.078 36.4422 196.426 37.0069C197.769 37.577 199.119 37.862 200.479 37.862C201.351 37.862 202.161 37.7383 202.909 37.4909C203.656 37.2489 204.254 36.8563 204.701 36.3132C205.149 35.77 205.372 35.0978 205.372 34.2965C205.372 33.2908 205.1 32.4599 204.557 31.8038C204.013 31.1423 203.183 30.4889 202.067 29.8436L197.14 26.8992C196.375 26.4367 195.594 25.9016 194.795 25.2939C193.991 24.6862 193.322 23.9386 192.79 23.0513C192.263 22.1586 192 21.0668 192 19.7761C192 18.308 192.354 17.0684 193.062 16.0573C193.764 15.0517 194.716 14.2907 195.917 13.7744C197.112 13.2581 198.457 13 199.952 13C201.283 13 202.453 13.1291 203.461 13.3872C204.463 13.6453 205.319 13.968 206.026 14.3552C206.734 14.7424 207.292 15.1296 207.7 15.5169V18.8485H207.131C206.451 18.1009 205.486 17.461 204.234 16.9286C202.982 16.4015 201.58 16.138 200.028 16.138C198.754 16.138 197.701 16.4284 196.868 17.0092C196.041 17.59 195.628 18.4236 195.628 19.5099C195.628 20.5156 195.996 21.3788 196.732 22.0994C197.463 22.8254 198.346 23.4976 199.383 24.1161L203.945 26.8266C204.868 27.3697 205.712 27.9747 206.477 28.6416C207.236 29.3138 207.847 30.0883 208.312 30.9649C208.771 31.8468 209 32.8928 209 34.1029Z" fill="#303030"/>
<path d="M226.301 13H230V41H226.301V28.6H213.647V41H210V13H213.647V25.4H226.301V13Z" fill="#303030"/>
<path d="M241 27H257V28H241V27Z" fill="#303030"/>
<path d="M283 13V16.2H272.565V26.8417C273.453 26.4694 274.456 26.175 275.574 25.9583C276.693 25.7472 277.833 25.6222 278.996 25.5833C280.154 25.5389 281.205 25.5972 282.149 25.7583V28.7583L281.828 29C281.098 28.8111 280.188 28.7167 279.098 28.7167C278.002 28.7167 276.875 28.8111 275.718 29C274.56 29.1889 273.509 29.4833 272.565 29.8833V41H269V13H283Z" fill="#303030"/>
<path d="M285 13H288V41H285V13Z" fill="#303030"/>
<path d="M291 13H294.787V37.8H305V41H291V13Z" fill="#303030"/>
<path d="M320 13V16.2H309.517V25.7167C310.4 25.3444 311.394 25.0583 312.5 24.8583C313.606 24.6583 314.733 24.5333 315.883 24.4833C317.028 24.4278 318.067 24.4806 319 24.6417V27.6833L318.683 27.9167C317.961 27.7056 317.061 27.6 315.983 27.6C314.9 27.6 313.786 27.6944 312.642 27.8833C311.492 28.0667 310.45 28.3722 309.517 28.8V37.8H320V41H306V13H320Z" fill="#303030"/>
<path d="M345 13V16.2417H338.809V41H335.274V16.2417H329V13H345Z" fill="#303030"/>
<path d="M346.085 13H349.588V41H346L346.085 13ZM355.696 13C357.296 13 358.721 13.3139 359.971 13.9417C361.221 14.5694 362.205 15.5083 362.923 16.7583C363.641 18.0139 364 19.575 364 21.4417C364 23.2528 363.627 24.7861 362.88 26.0417C362.134 27.2917 361.15 28.2444 359.928 28.9C358.707 29.5556 357.378 29.8833 355.942 29.8833H347.349V13H355.696ZM349.342 26.8H355.407C356.329 26.8 357.157 26.6 357.893 26.2C358.628 25.8 359.219 25.2056 359.665 24.4167C360.112 23.6333 360.336 22.6944 360.336 21.6C360.336 20.4 360.112 19.4 359.665 18.6C359.219 17.8 358.628 17.2 357.893 16.8C357.157 16.4 356.329 16.2 355.407 16.2H349.342V26.8ZM354.228 27.9167L357.604 27.4833L364 40.3583V41H360.336L354.228 27.9167Z" fill="#303030"/>
<path d="M363 41V40.2833L369.964 13L378.071 13.0417L385 40.2833V41H381.313L379.095 32H368.897L366.687 41H363ZM369.554 28.8833H378.48L375.408 16.2833H372.583L369.554 28.8833Z" fill="#303030"/>
<path d="M401.593 13H405V41H400.253L390.808 18.4833H390.293L390.374 41H387V13H391.747L401.233 35.6417H401.748L401.593 13Z" fill="#303030"/>
<path d="M424 34.1029C424 35.5226 423.655 36.7488 422.964 37.7813C422.268 38.8139 421.308 39.6071 420.085 40.1611C418.863 40.7204 417.422 41 415.763 41C414.461 41 413.261 40.8494 412.163 40.5483C411.059 40.2525 410.119 39.8975 409.344 39.4834C408.574 39.0747 407.996 38.7278 407.611 38.4428V35.1112H408.146C408.99 35.8103 410.082 36.4422 411.424 37.0069C412.771 37.577 414.124 37.862 415.483 37.862C416.349 37.862 417.156 37.7383 417.903 37.4909C418.65 37.2489 419.25 36.8563 419.703 36.3132C420.151 35.77 420.374 35.0978 420.374 34.2965C420.374 33.2908 420.102 32.4599 419.559 31.8038C419.015 31.1423 418.186 30.4889 417.071 29.8436L412.137 26.8992C411.379 26.4367 410.598 25.9016 409.794 25.2939C408.995 24.6862 408.33 23.9386 407.798 23.0513C407.266 22.1586 407 21.0668 407 19.7761C407 18.308 407.354 17.0684 408.061 16.0573C408.769 15.0517 409.72 14.2907 410.915 13.7744C412.109 13.2581 413.454 13 414.948 13C416.284 13 417.453 13.1291 418.455 13.3872C419.463 13.6453 420.32 13.968 421.028 14.3552C421.73 14.7424 422.285 15.1296 422.692 15.5169V18.8485H422.123C421.444 18.1009 420.479 17.461 419.228 16.9286C417.982 16.4015 416.584 16.138 415.033 16.138C413.754 16.138 412.701 16.4284 411.874 17.0092C411.048 17.59 410.634 18.4236 410.634 19.5099C410.634 20.5156 410.999 21.3788 411.73 22.0994C412.466 22.8254 413.349 23.4976 414.379 24.1161L418.948 26.8266C419.87 27.3697 420.711 27.9747 421.47 28.6416C422.234 29.3138 422.845 30.0883 423.304 30.9649C423.768 31.8468 424 32.8928 424 34.1029Z" fill="#303030"/>
<path d="M440 13V16.2H429.559V26.8417C430.447 26.4694 431.454 26.175 432.578 25.9583C433.697 25.7472 434.836 25.6222 435.994 25.5833C437.158 25.5389 438.212 25.5972 439.157 25.7583V28.7583L438.828 29C438.102 28.8111 437.192 28.7167 436.095 28.7167C435.004 28.7167 433.877 28.8111 432.713 29C431.555 29.1889 430.504 29.4833 429.559 29.8833V41H426V13H440Z" fill="#303030"/>
<path d="M455 13V16.2H444.517V25.7167C445.4 25.3444 446.394 25.0583 447.5 24.8583C448.606 24.6583 449.733 24.5333 450.883 24.4833C452.028 24.4278 453.067 24.4806 454 24.6417V27.6833L453.683 27.9167C452.961 27.7056 452.061 27.6 450.983 27.6C449.9 27.6 448.786 27.6944 447.642 27.8833C446.492 28.0667 445.45 28.3722 444.517 28.8V37.8H455V41H441V13H455Z" fill="#303030"/>
<path d="M457.09 13H460.778V41H457L457.09 13ZM467.225 13C468.921 13 470.425 13.3139 471.738 13.9417C473.057 14.5694 474.096 15.5083 474.854 16.7583C475.618 18.0139 476 19.575 476 21.4417C476 23.2528 475.606 24.7861 474.818 26.0417C474.03 27.2917 472.992 28.2444 471.702 28.9C470.413 29.5556 469.007 29.8833 467.485 29.8833H458.415V13H467.225ZM460.528 26.8H466.93C467.903 26.8 468.777 26.6 469.553 26.2C470.323 25.8 470.944 25.2056 471.416 24.4167C471.893 23.6333 472.132 22.6944 472.132 21.6C472.132 20.4 471.893 19.4 471.416 18.6C470.944 17.8 470.323 17.2 469.553 16.8C468.777 16.4 467.903 16.2 466.93 16.2H460.528V26.8ZM465.685 27.9167L469.249 27.4833L476 40.3583V41H472.132L465.685 27.9167Z" fill="#303030"/>
<path d="M21.0529 52.8124C30.0956 52.8124 37.4261 45.4818 37.4261 36.4391C37.4261 27.3965 30.0956 20.0659 21.0529 20.0659C12.0102 20.0659 4.67969 27.3965 4.67969 36.4391C4.67969 45.4818 12.0102 52.8124 21.0529 52.8124Z" fill="#EC0000"/>
<path d="M45.2053 52.8124C54.2479 52.8124 61.5785 45.4818 61.5785 36.4391C61.5785 27.3965 54.2479 20.0659 45.2053 20.0659C36.1626 20.0659 28.832 27.3965 28.832 36.4391C28.832 45.4818 36.1626 52.8124 45.2053 52.8124Z" fill="#06B200"/>
<path d="M33.3478 33.2845C42.3905 33.2845 49.7211 25.954 49.7211 16.9113C49.7211 7.86863 42.3905 0.538086 33.3478 0.538086C24.3052 0.538086 16.9746 7.86863 16.9746 16.9113C16.9746 25.954 24.3052 33.2845 33.3478 33.2845Z" fill="#286CFF"/>
</svg>
